# xmcd
#
# Track frame offsets:
#       150
#       18526
#       40660
#       54090
#       79088
#       94888
#       113436
#       136959
#       157132
#       177629
#       191715
#
# Disc length: 2779 seconds
#
# Revision: 2
# Processed by: cddbd v1.4PL0 Copyright (c) Steve Scherf et al.
# Submitted via: Mp3tag V.2.02e 
#
DISCID=8b0ad90b
DTITLE=Hookerman - Absolutely Maybe
DYEAR=2001
DGENRE=Blues
TTITLE0=I Know Where To Find You
TTITLE1=Paule (Absolutely Maybe)
TTITLE2=Freak Parade
TTITLE3=Invitation To The Blues
TTITLE4=Piss
TTITLE5=I Saw Her Dancing
TTITLE6=Love and Pain
TTITLE7=Talk
TTITLE8=Cycles's End
TTITLE9=Blue Man
TTITLE10=Christmas Card From A Hooker In Minneapolis
EXTD=
EXTT0=
EXTT1=
EXTT2=
EXTT3=
EXTT4=
EXTT5=
EXTT6=
EXTT7=
EXTT8=
EXTT9=
EXTT10=
PLAYORDER=
